<svg width="20" height="20" viewBox="0 0 20 20" fill="none" xmlns="http://www.w3.org/2000/svg">
<path fill-rule="evenodd" clip-rule="evenodd" d="M5 10C5 7.23857 7.23857 5 10 5C12.7614 5 15 7.23857 15 10C15 12.7614 12.7614 15 10 15C7.23857 15 5 12.7614 5 10ZM10 7C8.34313 7 7 8.34313 7 10C7 11.6569 8.34313 13 10 13C11.6569 13 13 11.6569 13 10C13 8.34313 11.6569 7 10 7Z" fill="#FAFAFA"/>
<path d="M16.5 4.5C16.5 5.0523 16.0523 5.5 15.5 5.5C14.9477 5.5 14.5 5.0523 14.5 4.5C14.5 3.9477 14.9477 3.5 15.5 3.5C16.0523 3.5 16.5 3.9477 16.5 4.5Z" fill="#FAFAFA"/>
<path fill-rule="evenodd" clip-rule="evenodd" d="M0 5C0 2.23858 2.23858 0 5 0H15C17.7614 0 20 2.23858 20 5V15C20 17.7614 17.7614 20 15 20H5C2.23858 20 0 17.7614 0 15V5ZM5 2C3.34314 2 2 3.34314 2 5V15C2 16.6569 3.34314 18 5 18H15C16.6569 18 18 16.6569 18 15V5C18 3.34314 16.6569 2 15 2H5Z" fill="#FAFAFA"/>
</svg>
