<svg width="20" height="20" viewBox="0 0 20 20" fill="none" xmlns="http://www.w3.org/2000/svg">
<path fill-rule="evenodd" clip-rule="evenodd" d="M6.18922 16.6708V7.75701H3.3291V16.6708H6.18922ZM4.86596 6.4077C5.81933 6.4077 6.41324 5.72523 6.41324 4.87084C6.39761 4.00082 5.81933 3.33398 4.88159 3.33398C3.94384 3.33398 3.33431 4.00082 3.33431 4.87084C3.33431 5.72523 3.92822 6.4077 4.84512 6.4077H4.86596Z" fill="#FAFAFA"/>
<path fill-rule="evenodd" clip-rule="evenodd" d="M13.3683 7.55371C11.8523 7.55371 11.201 8.4081 10.7843 9.002V7.7621H7.91895V16.6707H10.7843V11.5964C10.7843 11.3359 10.8051 11.0755 10.8833 10.8931C11.0916 10.3722 11.5605 9.83556 12.3524 9.83556C13.3891 9.83556 13.8059 10.6326 13.8059 11.7996V16.6707H16.6712V11.4662C16.6712 8.79362 15.2542 7.55371 13.3683 7.55371Z" fill="#FAFAFA"/>
<path d="M18.4006 0H1.70878C0.797083 0 0 0.656421 0 1.5577V18.286C0 19.1925 0.797083 20 1.70878 20H18.3954C19.3123 20 20 19.1873 20 18.286V1.5577C20.0052 0.656421 19.3123 0 18.4006 0ZM18.2339 18.3381C18.1766 18.3381 1.92238 18.3381 1.8286 18.3381C1.73483 18.3381 1.6671 18.2652 1.6671 18.1766C1.6671 18.088 1.6671 1.8286 1.6671 1.77129C1.6671 1.71399 1.7192 1.6671 1.77129 1.6671C1.82339 1.6671 18.1818 1.6671 18.2339 1.6671C18.286 1.6671 18.3381 1.7192 18.3381 1.77129C18.3381 2.98515 18.3381 18.1766 18.3381 18.2339C18.3381 18.2808 18.2912 18.3381 18.2339 18.3381Z" fill="#FAFAFA"/>
</svg>
